<?xml version="1.0" standalone="no"?>
<!DOCTYPE svg PUBLIC "-//W3C//DTD SVG 20010904//EN"
 "http://www.w3.org/TR/2001/REC-SVG-20010904/DTD/svg10.dtd">
<svg version="1.0" xmlns="http://www.w3.org/2000/svg"
 width="640.000000pt" height="300.000000pt" viewBox="0 0 640.000000 300.000000"
 preserveAspectRatio="xMidYMid meet">
<metadata>
Created by potrace 1.16, written by Peter Selinger 2001-2019
</metadata>
<g transform="translate(0.000000,300.000000) scale(0.100000,-0.100000)"
fill="#000000" stroke="none">
<path d="M785 2931 c-117 -45 -204 -92 -232 -125 -59 -70 -92 -183 -94 -325
-1 -83 -4 -101 -15 -97 -8 3 -20 8 -27 11 -15 6 -41 -50 -31 -66 5 -8 3 -9 -5
-4 -13 7 -61 -30 -61 -48 0 -5 14 -23 30 -39 17 -16 28 -33 25 -37 -3 -5 1
-11 9 -14 12 -5 25 9 30 33 1 3 7 15 14 28 10 18 16 20 32 12 11 -6 17 -17 14
-24 -3 -8 -1 -17 5 -21 7 -4 8 0 4 11 -4 12 -2 15 8 10 8 -3 22 -9 32 -12 9
-4 17 -16 17 -28 0 -37 20 -94 41 -118 l20 -23 -16 32 c-17 36 -20 73 -5 73 6
0 10 -8 10 -19 0 -10 7 -35 15 -55 8 -20 15 -39 14 -43 0 -4 5 -9 13 -11 9 -2
8 0 -2 7 -13 9 -13 11 1 11 8 0 20 -5 26 -11 9 -9 9 -3 3 22 -4 19 -15 63 -24
100 -9 37 -15 102 -14 150 1 46 4 73 7 60 5 -19 10 -8 20 44 21 104 88 213
151 245 54 27 171 26 154 -1 -3 -6 5 -7 20 -3 15 3 32 1 40 -6 11 -9 21 -8 43
3 29 15 57 12 47 -4 -3 -5 2 -9 10 -9 9 0 16 -4 16 -10 0 -5 10 -20 23 -33 12
-13 27 -30 32 -39 6 -9 32 -47 59 -85 68 -94 84 -135 96 -243 12 -108 24 -140
35 -92 3 18 13 32 21 32 10 0 14 13 14 44 0 25 5 48 11 52 7 4 9 23 5 53 -5
42 -4 44 9 27 14 -19 15 -18 15 15 0 87 -57 267 -122 385 -43 77 -176 175
-258 190 -14 3 -43 9 -65 14 -70 16 -145 10 -220 -19z"/>
<path d="M4820 2859 c0 -5 -4 -7 -10 -4 -5 3 -10 1 -10 -6 0 -9 -3 -10 -11 -2
-5 5 -21 8 -35 5 -18 -3 -24 -10 -22 -26 3 -19 -2 -21 -49 -24 -46 -3 -53 -6
-53 -24 0 -20 4 -21 88 -15 61 4 75 3 47 -3 -22 -5 -61 -9 -86 -9 -53 -1 -67
-18 -41 -49 13 -14 26 -18 50 -15 20 3 32 1 32 -6 0 -11 -18 -15 -55 -11 -13
1 -17 -2 -10 -8 6 -6 33 -12 61 -14 51 -3 76 7 125 54 9 9 20 14 23 11 8 -9
57 7 51 16 -3 5 4 7 15 4 11 -3 20 -1 20 4 0 9 -27 26 -60 36 -8 3 -1 6 17 6
17 1 34 7 36 14 4 9 8 9 14 0 4 -6 20 -10 35 -10 21 2 24 5 15 16 -7 8 -13 9
-15 3 -2 -6 -15 1 -30 16 -31 31 -72 40 -72 16 0 -13 -3 -14 -14 -5 -8 7 -23
11 -33 9 -12 -2 -17 2 -15 15 2 9 0 17 -3 17 -3 0 -5 -5 -5 -11z"/>
<path d="M2987 2539 c-13 -16 -22 -31 -19 -34 3 -3 0 -5 -7 -5 -8 0 -11 8 -8
19 3 13 -1 21 -13 24 -11 3 -17 -1 -16 -11 0 -8 -5 -17 -12 -19 -7 -3 -10 1
-6 11 9 23 -5 20 -27 -6 -18 -20 -21 -28 -23 -73 -1 -15 -7 -19 -27 -17 -15 1
-32 -4 -39 -13 -7 -8 -10 -15 -6 -15 3 0 1 -11 -4 -24 -9 -24 -3 -69 9 -62 3
2 11 -7 18 -20 6 -13 7 -24 2 -24 -18 0 4 -29 27 -34 20 -5 23 -10 14 -25 -15
-28 -38 -33 -97 -20 -43 10 -83 10 -194 -1 -120 -11 -142 -11 -157 2 -9 7 -29
20 -45 28 -15 7 -30 25 -34 39 -8 37 -23 52 -43 46 -13 -4 -26 6 -47 36 -36
54 -60 70 -73 49 -9 -13 -14 -7 -11 13 2 11 -13 8 -35 -7 -13 -10 -23 -11 -32
-4 -10 8 -11 7 -5 -8 6 -16 5 -17 -9 -6 -9 7 -30 15 -47 17 -17 2 -39 9 -50
15 -13 7 -22 7 -26 0 -4 -6 -10 -8 -15 -5 -4 3 -11 -2 -14 -11 -3 -9 -13 -14
-21 -10 -21 8 -78 -43 -65 -59 5 -6 7 -15 3 -19 -4 -4 0 -4 9 -1 13 5 15 2 11
-14 -3 -12 -9 -21 -14 -21 -5 0 -25 -16 -45 -36 -33 -34 -38 -36 -69 -27 -26
8 -36 7 -48 -4 -8 -9 -28 -15 -44 -15 -15 0 -44 -4 -63 -11 -19 -6 -37 -11
-40 -12 -23 -4 -139 -68 -135 -75 3 -5 0 -12 -6 -16 -8 -4 -9 -3 -5 4 4 7 1
12 -8 12 -11 0 -16 -9 -16 -29 0 -22 -6 -30 -25 -35 -27 -7 -75 -80 -75 -115
0 -12 -13 -39 -29 -59 -29 -37 -55 -101 -46 -110 3 -3 5 0 5 6 0 7 5 12 11 12
5 0 7 -4 4 -10 -3 -5 -1 -10 5 -10 17 0 1 -20 -25 -30 -28 -11 -35 -37 -19
-75 7 -16 13 -24 14 -17 0 6 5 12 11 12 7 0 9 -10 5 -26 -5 -19 -4 -24 6 -19
7 4 1 -4 -14 -19 -26 -25 -40 -65 -18 -51 15 9 12 -2 -6 -19 -8 -9 -11 -16 -5
-16 6 0 11 -11 11 -25 0 -18 11 -32 40 -51 22 -14 42 -35 45 -45 9 -27 21 -23
37 11 7 17 16 30 21 30 4 0 5 11 3 26 -3 16 0 27 10 31 8 3 14 16 14 29 0 13
5 24 11 24 5 0 8 4 5 8 -3 5 1 9 9 9 8 0 15 -4 15 -9 0 -4 12 2 26 14 14 13
20 24 15 26 -6 2 -11 17 -11 32 0 16 -5 32 -10 35 -6 3 -10 12 -9 18 0 9 2 9
6 0 2 -7 9 -13 14 -13 6 0 7 5 4 10 -4 6 -3 10 2 9 27 -5 32 3 29 47 -1 25 -7
49 -12 52 -5 4 -10 12 -9 19 0 20 14 26 29 14 11 -9 15 -7 19 9 3 13 1 18 -6
13 -7 -4 -6 1 2 11 8 9 20 15 27 12 8 -3 11 2 9 14 -2 11 1 23 7 26 6 4 8 3 5
-3 -4 -6 0 -16 7 -23 12 -9 17 -7 26 11 7 12 15 17 19 12 3 -6 14 -10 23 -10
10 0 16 2 14 5 -3 2 4 13 14 25 16 16 24 18 42 10 14 -6 32 -7 46 -2 15 6 21
5 17 -1 -4 -6 8 -8 30 -5 26 3 38 0 42 -11 4 -11 8 -12 13 -5 4 8 15 5 32 -8
14 -11 28 -18 31 -14 4 3 14 0 23 -7 13 -12 17 -11 25 1 6 10 9 10 9 2 0 -7 3
-12 8 -11 14 3 42 -14 36 -23 -3 -5 1 -9 9 -9 8 0 20 -7 27 -15 7 -9 20 -14
29 -13 9 2 22 -3 29 -12 8 -8 11 -9 7 -2 -7 14 11 17 20 3 3 -6 16 -6 34 0 24
9 38 5 95 -26 36 -19 66 -33 66 -31 0 3 11 -6 25 -20 14 -14 22 -31 19 -39 -4
-8 -1 -15 6 -15 6 0 9 -3 7 -7 -3 -5 -1 -17 4 -28 5 -12 8 14 8 71 1 98 8 114
56 138 26 14 32 14 52 1 12 -8 26 -15 30 -15 4 0 1 5 -7 10 -11 8 -8 10 15 7
19 -2 35 2 43 12 8 9 11 11 8 4 -4 -8 3 -11 21 -9 15 2 29 9 31 17 3 11 1 11
-8 -1 -10 -13 -11 -13 -7 0 2 8 12 14 21 14 9 -1 16 2 16 7 0 14 36 11 75 -5
34 -15 41 -11 36 17 -2 10 6 9 40 -8 16 -9 27 -19 25 -24 -3 -4 1 -8 8 -8 8 0
12 6 9 14 -9 23 15 14 37 -14 12 -16 19 -22 15 -15 -3 7 0 12 8 12 8 0 23 -17
32 -37 10 -21 20 -42 23 -47 3 -5 0 -6 -6 -2 -19 11 -13 -17 8 -42 11 -14 24
-20 31 -16 8 4 9 3 5 -4 -4 -7 -1 -12 7 -12 11 0 17 -22 23 -87 5 -49 8 -107
7 -130 -2 -69 26 -49 47 34 9 35 9 34 4 -13 -6 -59 9 -94 37 -87 21 6 25 -7
34 -115 3 -40 15 -93 26 -117 18 -41 19 -51 8 -100 -9 -42 -9 -68 -1 -108 6
-28 14 -67 17 -86 l5 -33 -38 8 c-20 4 -50 7 -67 6 -16 -1 -47 -2 -68 -3 -30
-1 -37 -5 -32 -17 4 -11 2 -12 -8 -6 -7 5 -4 1 6 -9 19 -17 19 -17 0 -17 -10
0 -25 -6 -32 -13 -11 -10 -13 -9 -7 3 6 12 5 12 -6 -1 -13 -16 -51 -23 -42 -7
3 5 10 6 15 3 5 -3 6 1 3 10 -6 14 -10 13 -33 -8 -27 -26 -100 -49 -87 -28 4
6 0 11 -8 11 -19 0 -19 4 -4 47 7 18 18 33 25 33 7 0 13 5 13 10 0 7 -7 7 -17
2 -20 -9 -33 -10 -48 -1 -5 3 -25 5 -42 4 -37 -1 -40 3 -16 20 13 9 13 14 3
20 -8 5 -11 4 -6 -3 4 -7 -5 -9 -31 -5 -66 9 -101 23 -176 73 -41 26 -84 51
-95 54 -19 6 -21 4 -20 -26 1 -18 1 -51 0 -73 -2 -36 -4 -38 -15 -20 -12 21
-14 26 -16 50 -1 13 -5 13 -28 -2 -16 -9 -47 -32 -70 -51 -27 -22 -49 -32 -60
-28 -22 7 -111 -89 -90 -97 6 -3 2 -6 -9 -6 -12 -1 -27 -8 -34 -16 -7 -8 -16
-13 -20 -10 -5 3 -12 0 -16 -6 -4 -8 -3 -9 4 -5 7 4 12 2 12 -3 0 -6 -6 -11
-13 -11 -8 0 -47 -36 -88 -80 -47 -51 -85 -83 -104 -88 -39 -11 -84 -84 -65
-108 21 -24 4 -27 -44 -9 -39 15 -43 19 -31 32 8 8 15 22 15 32 0 9 5 22 11
28 9 9 -2 18 -44 38 -39 19 -70 44 -102 82 -25 30 -45 52 -45 48 0 -4 -9 3
-21 16 -11 13 -18 19 -15 12 15 -29 -58 23 -107 78 -30 32 -57 59 -60 59 -3 0
-6 -10 -5 -22 2 -40 -2 -49 -14 -42 -6 4 -9 3 -6 -2 3 -5 0 -22 -7 -37 l-12
-29 -16 35 c-10 20 -23 37 -30 40 -8 3 -4 13 13 31 21 24 26 40 30 110 3 46 3
96 0 112 -3 16 -1 33 6 39 8 6 9 17 4 30 -5 11 -9 14 -9 7 -1 -22 -30 -44 -48
-38 -47 15 -113 180 -114 282 l-1 61 -39 -1 c-22 0 -43 5 -47 11 -4 6 -19 14
-34 18 -15 4 -32 13 -39 21 -6 8 -16 14 -21 14 -12 0 -47 41 -48 56 0 12 -101
80 -112 77 -4 -2 -5 4 -2 12 4 8 1 15 -5 15 -6 0 -11 -9 -11 -21 0 -11 -4 -17
-10 -14 -5 3 -10 0 -10 -8 0 -14 -27 -16 -47 -4 -18 11 -22 -15 -6 -45 9 -18
10 -28 3 -28 -6 0 -8 -6 -4 -12 4 -7 -2 -5 -13 4 -11 10 -25 18 -31 18 -15 0
-15 11 -2 44 5 14 16 26 23 26 26 0 57 48 57 90 0 22 6 42 14 47 24 15 48 71
37 91 -34 63 -64 47 -86 -44 -19 -80 -19 -108 0 -100 8 3 15 1 15 -4 0 -6 -11
-10 -25 -10 -16 0 -25 -6 -25 -15 0 -34 -42 -96 -83 -122 -23 -15 -66 -30 -96
-35 -89 -14 -209 -125 -212 -196 0 -10 -3 -12 -6 -4 -15 38 -35 -17 -35 -103
-1 -27 -3 -38 -5 -22 -2 15 -8 27 -13 27 -17 0 -49 -166 -50 -258 0 -40 -2
-43 -22 -37 -22 7 -37 15 -93 51 l-25 16 0 -486 0 -486 100 0 c55 0 100 4 100
9 0 5 20 36 44 69 25 33 48 76 51 95 6 28 10 34 26 30 12 -3 18 -11 15 -19 -3
-9 5 -16 22 -21 35 -9 158 -89 200 -130 l33 -33 574 0 c417 0 575 3 575 11 0
7 -9 9 -21 6 -17 -5 -18 -3 -7 10 11 13 14 13 29 -6 17 -21 22 -21 458 -21
319 0 441 3 441 11 0 8 4 8 13 1 9 -8 172 -12 530 -12 455 0 517 2 517 15 0
19 19 19 26 0 5 -11 22 -15 64 -15 l59 0 -58 92 c-74 118 -145 266 -143 297 2
28 20 53 32 46 5 -3 11 4 15 15 4 11 10 18 15 15 12 -8 24 40 16 62 -6 14 -9
15 -15 4 -13 -21 -18 4 -11 65 4 32 14 62 25 74 11 12 20 27 20 33 1 7 5 21
10 31 5 11 4 30 -2 47 -9 24 -8 27 6 22 14 -5 14 -4 -1 8 -9 8 -26 32 -38 53
-17 31 -19 41 -8 47 21 13 -6 32 -99 69 -146 57 -209 132 -243 289 -18 80 -20
115 -15 254 7 180 9 187 77 214 21 8 35 19 32 24 -3 5 2 9 10 9 9 0 16 4 16 9
0 13 -40 1 -82 -26 -49 -30 -55 -29 -50 11 2 19 -4 60 -13 93 -30 101 -19 142
59 233 69 82 208 141 341 146 39 1 75 3 82 3 19 1 -22 65 -61 94 -17 14 -51
31 -74 37 -38 12 -48 10 -117 -15 -42 -15 -103 -47 -135 -72 -72 -54 -158
-146 -166 -179 -3 -13 -10 -24 -14 -24 -5 0 -6 -10 -3 -22 4 -18 2 -20 -6 -8
-8 11 -13 4 -22 -33 -9 -32 -16 -43 -22 -34 -6 8 -7 6 -3 -6 8 -24 -4 -68 -16
-61 -5 3 -18 -2 -28 -11 -19 -17 -19 -17 -9 16 6 19 20 70 31 113 25 102 85
211 148 270 55 51 58 56 34 56 -10 0 -14 6 -10 15 3 9 -3 19 -17 26 -12 7 -38
29 -58 51 -25 25 -46 38 -65 39 -16 1 -39 3 -51 4 -13 1 -23 -2 -23 -6 0 -14
-26 -11 -38 4 -6 7 -22 13 -36 15 -14 1 -35 11 -46 22 -18 18 -18 21 -4 18 9
-2 19 2 21 8 7 21 -26 10 -50 -17z m-736 -326 c8 -40 5 -74 -7 -84 -8 -6 -14
-20 -14 -30 0 -20 -36 -49 -61 -49 -9 0 -28 9 -43 21 l-26 20 20 39 c23 44 29
49 64 52 15 1 28 10 32 20 5 18 33 25 35 11z m-1194 -1499 c-7 -8 73 -106 160
-197 36 -37 62 -71 59 -75 -4 -4 -128 -9 -275 -12 l-267 -5 -106 -54 -107 -53
-30 22 c-17 12 -31 18 -31 13 0 -4 -6 0 -13 9 -12 15 -14 15 -25 -3 -11 -17
-9 -19 24 -19 30 0 34 -2 25 -14 -6 -8 -10 -18 -9 -23 4 -12 -110 -105 -116
-94 -3 4 17 29 44 56 50 49 55 65 19 65 -10 0 -19 3 -19 6 0 11 41 74 48 74 4
0 34 20 66 45 33 24 63 42 68 39 5 -3 7 0 6 7 -5 21 71 57 168 79 76 18 104
30 153 67 40 29 75 47 101 50 22 3 43 10 46 14 3 5 8 9 11 9 4 0 4 -3 0 -6z"/>
<path d="M6045 2380 c-4 -6 -11 -8 -16 -5 -5 4 -9 3 -9 -2 0 -4 -18 -17 -40
-27 -25 -12 -39 -25 -36 -33 3 -7 -3 -17 -13 -22 -14 -8 -21 -4 -34 19 -16 27
-16 29 0 33 11 3 7 5 -10 6 -17 1 -26 -3 -22 -9 3 -5 -2 -10 -12 -11 -10 0
-36 -9 -58 -20 -22 -10 -30 -16 -17 -13 12 3 22 1 22 -5 0 -6 -13 -11 -30 -11
-16 0 -30 -5 -30 -11 0 -8 11 -9 33 -5 23 4 28 3 17 -4 -8 -5 -23 -10 -32 -10
-20 0 -25 -20 -5 -21 6 0 1 -5 -13 -11 -23 -9 -24 -11 -5 -17 17 -7 16 -9 -10
-19 -29 -10 -29 -10 -5 -11 l24 -1 -22 -16 c-12 -8 -20 -20 -17 -25 4 -5 -2
-6 -12 -2 -10 3 -15 3 -11 -2 4 -4 3 -14 -3 -22 -9 -10 -8 -13 0 -13 7 0 9 -5
5 -12 -4 -7 -3 -8 5 -4 6 4 9 11 6 16 -6 10 23 22 36 14 5 -3 9 0 9 6 0 6 4 9
9 5 5 -3 12 -1 16 5 3 5 12 10 18 10 7 0 -5 -11 -26 -24 -50 -31 -54 -36 -37
-46 9 -6 20 -4 30 4 8 7 31 19 50 26 19 7 42 19 50 25 24 20 72 32 115 29 68
-3 114 6 108 22 -3 9 1 14 12 14 9 0 13 5 10 10 -3 6 3 11 14 11 12 1 27 2 34
3 21 4 39 -15 27 -29 -14 -17 -6 -22 81 -46 50 -14 75 -17 83 -9 7 5 15 8 17
6 2 -3 4 16 3 41 -1 31 -7 49 -18 55 -10 5 -15 17 -12 26 3 9 1 24 -4 32 -8
12 -10 10 -10 -10 0 -14 -4 -31 -9 -39 -5 -8 -7 4 -4 32 5 40 3 46 -18 57 -20
10 -22 10 -11 -1 6 -7 12 -22 11 -33 0 -14 -3 -16 -6 -7 -10 26 -58 68 -85 74
-14 4 -34 10 -43 13 -15 6 -16 4 -6 -14 7 -14 8 -23 1 -27 -6 -4 -8 -11 -5
-16 11 -16 -11 -10 -35 11 -13 11 -27 20 -32 20 -16 0 -8 19 12 25 11 3 20 11
20 16 0 12 -47 12 -55 -1z"/>
<path d="M3934 2277 c1 -11 9 -25 18 -31 8 -6 13 -17 10 -24 -2 -7 0 -11 5
-10 9 3 54 -38 47 -44 -2 -3 12 -27 31 -54 19 -27 35 -55 35 -61 0 -7 16 -43
36 -80 101 -190 134 -260 144 -307 7 -28 18 -65 26 -83 8 -18 12 -43 8 -58 -6
-26 9 -35 22 -13 13 20 34 -23 34 -69 0 -32 -5 -45 -20 -53 -14 -8 -20 -21
-20 -45 0 -52 -28 -125 -66 -175 -31 -39 -34 -49 -29 -85 13 -85 18 -97 56
-135 37 -37 50 -72 30 -84 -5 -4 -12 0 -14 6 -3 8 -6 6 -6 -4 -1 -10 7 -19 17
-19 9 -1 23 -2 31 -3 55 -5 54 -474 -1 -746 -6 -30 -15 -59 -20 -64 -31 -36
-36 -36 1010 -36 l1018 0 29 93 c24 77 29 114 32 222 2 94 0 125 -7 113 -20
-33 -32 -20 -27 30 8 73 11 86 26 102 11 11 12 37 7 126 -4 61 -9 122 -11 135
-3 12 0 28 6 36 12 14 8 203 -5 238 -6 16 -6 17 3 5 8 -12 10 -8 8 18 -2 28
-4 30 -14 16 -11 -16 -13 -15 -22 7 -5 13 -10 18 -10 12 -1 -7 -8 -13 -17 -13
-9 0 -23 -8 -31 -17 -14 -17 -14 -17 -7 2 20 57 56 162 59 175 1 8 12 43 24
77 26 78 27 123 1 173 -11 22 -20 47 -19 57 0 14 2 13 9 -4 10 -24 22 -32 15
-10 -2 6 -6 37 -9 68 -10 106 -43 137 -47 44 -2 -40 -2 -39 -9 10 -6 45 -7 42
-10 -37 -3 -109 -1 -98 -45 -203 -7 -16 -18 -46 -24 -65 -17 -51 -36 -71 -140
-148 -168 -125 -224 -123 -324 10 -117 157 -111 140 -120 332 -4 94 -9 182
-11 196 -2 14 -4 34 -5 45 -2 11 -9 0 -17 -27 -8 -26 -20 -47 -27 -45 -6 1
-20 -23 -30 -53 -16 -48 -17 -64 -7 -126 12 -76 8 -109 -21 -163 -20 -38 -13
-53 35 -65 15 -4 30 -16 33 -26 3 -11 13 -22 24 -25 39 -13 113 -110 143 -189
17 -42 33 -79 37 -82 7 -4 59 15 69 26 24 25 200 133 200 123 0 -4 -18 -34
-39 -67 -59 -91 -84 -176 -76 -256 13 -141 16 -150 45 -165 26 -14 27 -17 18
-52 -5 -21 -12 -53 -15 -70 -3 -18 -10 -33 -15 -33 -6 0 -8 -9 -5 -20 3 -11 2
-18 -3 -15 -9 5 -24 -61 -16 -73 2 -4 6 -44 7 -87 1 -44 6 -87 12 -95 6 -10 4
-27 -7 -50 -9 -19 -14 -27 -11 -17 3 11 7 31 10 45 4 20 2 18 -8 -7 -9 -23
-16 -31 -21 -23 -13 22 -25 2 -16 -28 6 -19 5 -32 -2 -36 -6 -4 -8 -3 -5 2 3
6 -1 23 -8 39 -17 37 -51 218 -65 341 -10 92 -29 150 -46 136 -4 -4 -3 0 4 9
10 13 9 19 -2 28 -8 7 -13 18 -10 25 3 7 -2 18 -10 25 -12 10 -17 9 -25 -8
-13 -24 -14 -34 -3 -27 5 3 9 -1 9 -9 0 -10 -5 -10 -25 3 -24 16 -25 16 -14
-5 10 -19 9 -20 -8 -16 -12 3 -20 0 -20 -6 0 -7 4 -10 9 -6 5 3 13 1 16 -5 4
-6 1 -9 -6 -8 -6 2 -14 -3 -17 -11 -3 -9 0 -11 9 -6 12 7 12 5 1 -6 -18 -20
-35 -18 -48 6 -8 15 -7 24 5 39 15 18 15 18 -6 8 -18 -10 -21 -9 -18 6 1 9 -3
26 -10 37 -12 20 -28 66 -40 120 l-7 30 -10 -25 c-5 -14 -12 -74 -14 -135 -3
-60 -12 -143 -20 -184 -8 -40 -14 -94 -14 -120 -1 -25 -7 -57 -16 -71 -8 -15
-13 -18 -12 -8 2 9 -1 17 -7 17 -5 1 -10 -5 -11 -12 -2 -27 -5 -29 -21 -16
-15 12 -16 12 -10 -4 4 -11 3 -16 -3 -12 -6 3 -10 16 -10 28 -1 19 -2 20 -10
5 -6 -9 -19 -15 -30 -13 -11 2 -22 0 -25 -6 -8 -12 -25 -12 -25 2 0 5 4 8 9 4
5 -3 12 -1 16 4 3 5 14 8 25 6 11 -2 20 0 20 5 0 18 -62 3 -79 -19 -16 -21
-31 -20 -31 3 0 6 5 4 11 -4 8 -12 10 -12 7 -1 -5 19 -34 22 -49 5 -12 -15
-29 -10 -29 9 0 8 3 8 9 -1 7 -11 9 -10 14 3 4 9 3 13 -2 10 -5 -3 -12 -1 -16
5 -9 14 -27 1 -19 -13 4 -7 4 -9 -1 -5 -4 4 -15 2 -23 -5 -9 -6 -13 -7 -10 -2
3 6 0 15 -7 22 -10 10 -15 9 -21 -5 -4 -9 -6 -21 -5 -25 1 -5 -3 -6 -9 -2 -6
3 -8 11 -5 16 4 5 2 9 -4 9 -5 0 -12 -4 -16 -10 -3 -5 -12 -7 -20 -4 -8 4 -12
10 -9 16 3 5 12 7 20 4 7 -3 16 0 20 6 4 7 9 6 15 -3 5 -8 9 -9 9 -3 0 6 -7
17 -16 24 -12 11 -15 11 -12 -1 2 -8 -3 -13 -11 -11 -7 1 -19 -2 -25 -8 -7 -5
-15 -8 -18 -5 -3 3 -1 -18 3 -47 5 -28 6 -54 4 -57 -3 -2 -5 3 -5 13 0 9 -5
14 -10 11 -6 -4 -17 -2 -24 4 -10 8 -18 5 -32 -11 -16 -19 -16 -20 -1 -9 12
10 17 10 17 2 0 -7 5 -9 13 -5 7 5 6 1 -3 -10 -8 -10 -15 -25 -16 -33 -4 -23
-14 -29 -14 -7 0 16 -2 16 -10 4 -6 -9 -5 -19 2 -28 16 -18 -1 -28 -45 -27
-24 1 -43 10 -65 33 -45 46 -65 79 -56 93 4 7 3 9 -3 6 -6 -4 -15 4 -21 18 -6
13 -21 25 -34 27 -17 2 -22 9 -21 26 2 12 -1 22 -6 22 -4 0 -25 44 -47 98 -32
81 -48 106 -93 149 -29 28 -67 57 -82 64 -27 10 -29 16 -29 64 0 55 38 166 60
173 8 3 10 0 6 -7 -4 -7 0 -11 13 -11 10 0 21 5 23 12 3 9 28 12 81 10 42 -2
77 1 77 6 0 4 -11 19 -25 32 -14 13 -30 42 -36 64 -50 199 -88 286 -141 324
-10 7 -18 20 -18 28 0 8 -4 14 -9 14 -5 0 -12 16 -15 36 -4 19 -10 43 -13 51
-5 12 -3 14 7 8 9 -6 12 -4 8 6 -3 8 -15 44 -28 81 -12 37 -26 66 -30 63 -4
-3 -11 14 -14 37 -8 52 -46 138 -53 120 -3 -7 3 -29 12 -48 27 -58 9 -51 -30
12 -21 33 -47 73 -58 89 -61 87 -85 129 -82 146 2 10 -1 19 -7 19 -5 0 -7 -8
-4 -17 4 -11 -2 -8 -14 7 -26 34 -25 24 7 -46 14 -33 25 -69 25 -82 -1 -13 7
-41 19 -64 11 -22 17 -38 12 -35 -26 17 -100 221 -95 262 2 16 0 17 -8 5 -8
-13 -10 -13 -10 1 0 9 -7 23 -17 30 -15 13 -15 12 0 -18 19 -36 22 -57 7 -48
-5 3 -10 13 -10 21 0 9 -11 30 -25 48 -14 18 -25 36 -25 40 0 7 -10 20 -40 55
-8 9 -21 29 -29 44 -9 17 -23 27 -37 27 -13 0 -25 4 -28 9 -4 5 4 7 16 4 34
-9 13 9 -27 23 -32 11 -34 10 -31 -9z m639 -1632 c9 -8 19 -29 23 -47 6 -32 7
-32 15 -10 5 13 14 22 20 20 14 -5 41 -68 30 -68 -5 0 6 -31 25 -68 34 -69 59
-162 43 -162 -5 0 -16 17 -24 38 -9 20 -26 60 -40 87 -22 47 -23 48 -18 15 l5
-35 -22 30 c-30 43 -100 182 -100 200 0 19 24 19 43 0z"/>
<path d="M4733 1620 c-3 -11 -9 -20 -13 -20 -4 0 -8 -6 -7 -12 1 -47 -4 -56
-50 -73 -66 -25 -75 -36 -50 -57 11 -10 25 -18 32 -18 7 0 25 -12 40 -26 37
-34 64 -43 111 -37 61 8 102 32 173 101 36 35 79 76 94 90 23 21 25 28 13 30
-9 2 -16 8 -16 14 0 6 -7 7 -17 2 -24 -10 -153 -21 -153 -13 0 4 -15 7 -34 7
-19 0 -40 3 -46 7 -6 4 -24 11 -41 15 -27 8 -32 6 -36 -10z"/>
<path d="M5751 1434 c3 -47 16 -69 34 -54 18 15 61 -4 76 -32 10 -20 10 -22
-2 -13 -8 6 -6 2 4 -7 11 -10 24 -15 29 -12 6 4 5 10 -3 15 -15 9 -13 10 41
13 14 0 25 7 26 16 0 8 -1 10 -3 3 -8 -24 -94 5 -92 31 0 8 2 7 5 -1 4 -8 28
-10 80 -7 41 3 74 1 74 -3 0 -5 18 -7 40 -5 22 2 40 8 40 12 0 12 -40 20 -107
20 -34 0 -64 4 -68 10 -3 5 -12 7 -19 4 -16 -6 -125 23 -144 39 -10 8 -12 2
-11 -29z"/>
<path d="M2340 1442 c-25 -20 -20 -42 10 -42 10 0 21 -4 24 -9 3 -4 20 -11 37
-15 l31 -6 -27 -31 c-18 -23 -23 -34 -15 -39 15 -9 50 -1 50 11 0 5 18 19 40
31 32 18 40 29 40 51 0 16 4 26 10 22 6 -4 7 2 1 17 -8 21 -15 23 -93 26 -71
2 -89 0 -108 -16z"/>
<path d="M1630 1330 c-48 -10 -111 -39 -85 -40 11 0 32 -6 46 -14 15 -7 51
-22 80 -31 49 -17 51 -19 29 -27 -14 -5 -44 -6 -68 -3 -56 7 -47 -8 15 -27 69
-22 113 -21 150 1 48 30 57 53 30 84 -43 48 -123 71 -197 57z"/>
<path d="M2075 1262 c-27 -6 -55 -32 -55 -52 0 -20 62 -46 99 -42 14 2 43 4
64 5 34 1 38 4 35 27 -5 38 -87 74 -143 62z"/>
<path d="M2467 1214 c-14 -29 -15 -105 -2 -165 6 -27 8 -28 19 -13 10 13 17
14 34 5 29 -16 39 -14 16 4 -28 21 -4 18 34 -5 17 -11 32 -16 32 -12 0 4 5 0
10 -8 7 -11 10 -11 10 -2 0 7 4 11 9 8 5 -3 11 0 14 8 3 8 14 12 24 10 10 -3
35 6 56 20 41 28 76 33 95 14 9 -9 12 -2 12 33 0 24 -5 51 -10 59 -8 13 -10
13 -10 -1 0 -18 -31 -49 -49 -49 -7 0 -28 -12 -47 -26 -25 -20 -46 -26 -84
-27 -46 -1 -104 19 -96 32 2 3 41 6 85 5 45 -1 84 3 88 9 3 5 -11 7 -36 4 -23
-2 -44 -1 -47 4 -3 5 7 9 21 9 39 0 25 23 -15 24 -23 1 -34 -4 -37 -15 -5 -17
-76 -35 -94 -24 -14 9 -11 83 4 88 9 3 8 9 -5 22 -15 17 -17 16 -31 -11z"/>
<path d="M1635 999 c-68 -50 -76 -65 -69 -123 4 -28 7 -56 7 -62 0 -6 6 -11
14 -11 7 0 13 4 13 9 0 4 7 8 15 8 9 0 12 6 9 15 -10 25 4 17 39 -22 19 -20
42 -37 53 -38 11 0 25 -4 32 -9 12 -7 32 -12 77 -17 23 -3 89 24 99 40 5 7 1
9 -8 5 -11 -4 -16 0 -16 10 0 10 -10 17 -27 18 -74 4 -125 17 -117 29 3 5 17
9 32 10 l27 0 -25 11 c-14 6 -47 13 -74 15 -70 7 -92 18 -100 48 -5 20 -2 31
11 40 38 27 68 54 58 54 -5 0 -28 -14 -50 -30z"/>
</g>
</svg>
